<?xml version="1.0" standalone="no"?>
<!DOCTYPE svg PUBLIC "-//W3C//DTD SVG 20010904//EN"
 "http://www.w3.org/TR/2001/REC-SVG-20010904/DTD/svg10.dtd">
<svg version="1.0" xmlns="http://www.w3.org/2000/svg"
 width="700.000000pt" height="700.000000pt" viewBox="0 0 700.000000 700.000000"
 preserveAspectRatio="xMidYMid meet">
<metadata>
Created by potrace 1.11, written by Peter Selinger 2001-2013
</metadata>
<g transform="translate(0.000000,700.000000) scale(0.100000,-0.100000)"
fill="#000000" stroke="none">
<path d="M4680 6143 c-384 -78 -528 -555 -253 -836 158 -161 390 -194 595 -85
46 25 101 72 164 141 20 23 64 123 79 182 18 72 14 192 -9 253 -8 23 -16 46
-16 50 -3 24 -66 116 -109 160 -121 119 -286 169 -451 135z"/>
<path d="M2916 5380 c-42 -27 -127 -83 -189 -123 -61 -41 -242 -158 -402 -262
-159 -103 -307 -204 -328 -224 -183 -173 -67 -485 186 -504 69 -5 131 14 219
68 35 21 65 41 68 45 3 3 75 50 160 105 85 54 226 145 313 202 87 57 161 103
165 103 21 1 442 -106 442 -113 0 -4 -91 -141 -202 -305 -112 -163 -214 -313
-228 -334 -14 -20 -73 -108 -132 -195 -155 -230 -194 -330 -185 -476 6 -92 51
-197 115 -264 59 -62 258 -208 837 -614 110 -78 206 -146 213 -153 10 -10 -19
-76 -151 -347 -389 -791 -378 -766 -378 -844 0 -81 15 -128 63 -187 95 -120
270 -146 400 -60 67 44 53 19 443 817 51 105 159 325 240 490 80 165 147 304
148 309 2 8 -181 141 -720 522 -166 117 -260 190 -256 197 7 13 85 127 280
412 71 105 167 245 213 313 46 68 86 119 90 115 4 -4 53 -123 110 -265 56
-141 106 -261 110 -267 3 -7 18 -14 31 -16 13 -2 67 -11 119 -20 52 -9 104
-18 115 -19 11 -2 47 -9 80 -14 33 -6 76 -13 95 -16 19 -3 46 -8 60 -11 28 -6
193 -34 415 -71 83 -14 161 -27 175 -30 77 -16 151 -16 207 2 81 25 162 106
187 186 17 55 20 146 6 178 -30 66 -48 94 -82 129 -53 53 -112 76 -253 97 -16
3 -52 9 -80 15 -27 5 -64 11 -80 13 -17 2 -69 11 -115 19 -47 9 -101 18 -120
21 -19 3 -57 10 -85 15 -55 11 -97 18 -165 27 -78 11 -79 12 -132 145 -53 134
-58 146 -81 199 -8 19 -43 105 -77 191 l-63 156 -320 212 c-216 144 -336 217
-371 228 -67 19 -79 22 -371 94 -137 33 -263 65 -280 70 -63 18 -355 89 -368
89 -8 0 -49 -22 -91 -50z"/>
<path d="M2579 2980 c-19 -30 -77 -125 -129 -210 l-95 -154 -590 -1 -590 -1
-56 -26 c-76 -35 -110 -67 -145 -136 -25 -49 -29 -68 -29 -137 0 -63 5 -89 23
-122 35 -66 78 -110 140 -140 l57 -28 761 -3 762 -3 172 283 c95 156 179 292
186 304 13 19 7 25 -89 94 -115 84 -102 74 -181 136 -50 41 -114 116 -152 180
-10 17 -15 13 -45 -36z"/>
</g>
</svg>
